<?xml version="1.0" encoding="UTF-8"?>
<!DOCTYPE svg PUBLIC "-//W3C//DTD SVG 1.1//EN" "http://www.w3.org/Graphics/SVG/1.1/DTD/svg11.dtd">
<!-- Creator: CorelDRAW -->
<svg xmlns="http://www.w3.org/2000/svg" xml:space="preserve" width="200mm" height="200mm" version="1.1" style="shape-rendering:geometricPrecision; text-rendering:geometricPrecision; image-rendering:optimizeQuality; fill-rule:evenodd; clip-rule:evenodd"
viewBox="0 0 20000 20000"
 xmlns:xlink="http://www.w3.org/1999/xlink"
 xmlns:xodm="http://www.corel.com/coreldraw/odm/2003">
 <defs>
  <style type="text/css">
   <![CDATA[
    .fil0 {fill:#D2D2D2}
   ]]>
  </style>
 </defs>
 <g id="Слой_x0020_1">
  <metadata id="CorelCorpID_0Corel-Layer"/>
  <g id="_2260202606736">
   <path class="fil0" d="M12487.03 7923.99c0,1377.83 -1116.8,2494.63 -2494.63,2494.63 -1377.83,0 -2494.63,-1116.8 -2494.63,-2494.63l-1672.64 0c0,2301.45 1865.81,4167.26 4167.27,4167.26 2301.46,0 4167.27,-1865.81 4167.27,-4167.26l-1672.64 0z"/>
   <path class="fil0" d="M17933.78 7653.23l-565.6 -565.6 -3208.51 -3208.51 -0.04 0.04 -1672.6 0c0,1377.83 -1116.8,2494.63 -2494.63,2494.63 -1377.83,0 -2494.63,-1116.8 -2494.63,-2494.63l-1672.6 0 -0.04 -0.04 -3208.51 3208.51 -565.6 565.6 -88.17 95.59c-33.59,42.73 -62.66,88.11 -87.01,135.61 -6.04,11.78 -11.8,23.73 -17.28,35.83 -42.29,93.31 -66.93,194 -72.51,298.38 -13.24,247.69 78.63,468.39 253.02,642.78l3852.59 3852.59c351.32,1945.88 2053.65,3422.07 4100.74,3422.07 2047.09,0 3749.42,-1476.19 4100.74,-3422.07l3852.59 -3852.59c174.39,-174.39 266.26,-395.09 253.02,-642.78 -5.58,-104.38 -30.22,-205.07 -72.51,-298.38 -5.48,-12.1 -11.24,-24.05 -17.28,-35.83 -24.35,-47.5 -53.42,-92.88 -87.01,-135.61l-88.17 -95.59zm-4229.45 -1878.11l2488.18 2488.18 -3705.48 3705.48 0.04 0.04 -0.04 0c0,1377.83 -1116.8,2494.63 -2494.63,2494.63 -1377.83,0 -2494.63,-1116.8 -2494.63,-2494.63l-0.04 0 0.04 -0.04 -3705.48 -3705.48 2488.18 -2488.18c690.1,1348.33 2093.26,2271.3 3711.93,2271.3 1618.67,0 3021.83,-922.97 3711.93,-2271.3z"/>
  </g>
 </g>
</svg>
